<svg width="153" height="50" viewBox="0 0 153 50" fill="none" xmlns="http://www.w3.org/2000/svg">
<path d="M27.555 46.68C29.283 46.68 31.139 46.344 33.123 45.672C35.107 45.032 37.155 44.104 39.267 42.888C41.379 41.672 43.443 40.248 45.459 38.616C47.507 36.952 49.411 35.144 51.171 33.192L52.275 31.944H52.707L51.555 33.192C49.763 35.24 47.827 37.112 45.747 38.808C43.667 40.504 41.555 41.96 39.411 43.176C37.267 44.424 35.187 45.384 33.171 46.056C31.155 46.76 29.283 47.112 27.555 47.112C24.995 47.112 22.755 46.632 20.835 45.672C18.915 44.744 17.427 43.432 16.371 41.736C15.315 40.072 14.787 38.104 14.787 35.832C14.787 33.464 15.363 31.192 16.515 29.016C17.699 26.808 19.283 24.84 21.267 23.112C23.283 21.352 25.555 19.976 28.083 18.984C30.611 17.96 33.235 17.448 35.955 17.448C37.363 17.448 38.451 17.592 39.219 17.88C40.019 18.136 40.419 18.536 40.419 19.08C40.419 19.4 40.227 19.688 39.843 19.944C39.491 20.2 39.043 20.328 38.499 20.328C37.219 20.328 36.163 19.8 35.331 18.744C34.499 17.688 34.083 16.312 34.083 14.616C34.083 12.824 34.563 11.096 35.523 9.432C36.483 7.736 37.779 6.232 39.411 4.92C41.043 3.576 42.883 2.52 44.931 1.752C47.011 0.983999 49.171 0.599999 51.411 0.599999C56.723 0.599999 59.379 3.016 59.379 7.848C59.379 9.448 59.043 11.176 58.371 13.032C57.731 14.888 56.851 16.744 55.731 18.6C54.611 20.424 53.315 22.184 51.843 23.88C50.403 25.544 48.899 27.048 47.331 28.392C45.763 29.704 44.195 30.744 42.627 31.512C41.059 32.28 39.587 32.664 38.211 32.664C36.867 32.664 35.779 32.2 34.947 31.272C34.147 30.344 33.747 29.08 33.747 27.48C33.747 26.104 34.115 24.584 34.851 22.92C35.587 21.256 36.547 19.592 37.731 17.928C38.947 16.264 40.275 14.744 41.715 13.368C43.187 11.96 44.643 10.84 46.083 10.008C47.555 9.176 48.883 8.76 50.067 8.76C51.411 8.76 52.083 9.528 52.083 11.064C52.083 12.6 51.539 14.232 50.451 15.96C49.395 17.656 47.939 19.368 46.083 21.096C44.259 22.792 42.147 24.408 39.747 25.944C37.379 27.48 34.867 28.84 32.211 30.024C29.555 31.208 26.899 32.152 24.243 32.856C21.587 33.528 19.059 33.864 16.659 33.864C13.523 33.864 10.707 33.368 8.211 32.376C5.715 31.352 3.747 29.992 2.307 28.296C0.867 26.568 0.146999 24.6 0.146999 22.392C0.146999 20.472 0.691 18.712 1.779 17.112C2.835 15.512 4.323 14.104 6.243 12.888C8.163 11.672 10.419 10.744 13.011 10.104C15.603 9.432 18.451 9.096 21.555 9.096C23.699 9.096 25.939 9.288 28.275 9.672C30.643 10.056 32.979 10.584 35.283 11.256C37.587 11.896 39.747 12.648 41.763 13.512C43.811 14.376 45.603 15.32 47.139 16.344C48.707 17.368 49.907 18.424 50.739 19.512L50.499 19.704C49.731 18.744 48.611 17.768 47.139 16.776C45.667 15.784 43.939 14.856 41.955 13.992C40.003 13.096 37.891 12.312 35.619 11.64C33.347 10.968 31.011 10.44 28.611 10.056C26.211 9.672 23.875 9.48 21.603 9.48C18.531 9.48 15.715 9.8 13.155 10.44C10.595 11.08 8.387 11.992 6.531 13.176C4.643 14.328 3.187 15.704 2.163 17.304C1.107 18.872 0.579 20.6 0.579 22.488C0.579 24.568 1.283 26.44 2.691 28.104C4.067 29.768 5.971 31.08 8.403 32.04C10.835 32.968 13.587 33.432 16.659 33.432C19.027 33.432 21.523 33.096 24.147 32.424C26.803 31.752 29.443 30.84 32.067 29.688C34.691 28.504 37.171 27.176 39.507 25.704C41.843 24.2 43.923 22.616 45.747 20.952C47.571 19.256 49.011 17.576 50.067 15.912C51.123 14.216 51.651 12.6 51.651 11.064C51.651 9.784 51.123 9.144 50.067 9.144C48.883 9.144 47.587 9.56 46.179 10.392C44.771 11.224 43.347 12.312 41.907 13.656C40.499 15 39.203 16.488 38.019 18.12C36.867 19.752 35.923 21.4 35.187 23.064C34.483 24.696 34.131 26.184 34.131 27.528C34.131 28.968 34.499 30.12 35.235 30.984C36.003 31.848 36.979 32.28 38.163 32.28C39.539 32.28 40.995 31.912 42.531 31.176C44.067 30.408 45.619 29.384 47.187 28.104C48.755 26.792 50.243 25.32 51.651 23.688C53.059 22.024 54.307 20.28 55.395 18.456C56.515 16.6 57.395 14.776 58.035 12.984C58.675 11.16 58.995 9.448 58.995 7.848C58.995 5.576 58.419 3.864 57.267 2.712C56.115 1.56 54.403 0.983997 52.131 0.983997C50.115 0.983997 48.115 1.416 46.131 2.28C44.147 3.144 42.339 4.296 40.707 5.736C39.107 7.176 37.811 8.776 36.819 10.536C35.859 12.264 35.379 14.024 35.379 15.816C35.379 18.568 36.435 19.944 38.547 19.944C38.963 19.944 39.315 19.864 39.603 19.704C39.891 19.544 40.035 19.352 40.035 19.128C40.035 18.744 39.683 18.44 38.979 18.216C38.307 17.96 37.459 17.832 36.435 17.832C34.611 17.832 32.819 18.216 31.059 18.984C29.299 19.72 27.635 20.744 26.067 22.056C24.499 23.368 23.123 24.888 21.939 26.616C20.755 28.312 19.827 30.152 19.155 32.136C18.483 34.088 18.147 36.072 18.147 38.088C18.147 43.816 21.283 46.68 27.555 46.68ZM65.9936 39.432C63.6256 39.432 61.5456 38.696 59.7536 37.224C57.9936 35.752 56.6176 33.688 55.6256 31.032C54.6656 28.344 54.1856 25.176 54.1856 21.528C54.1856 18.008 54.7136 14.936 55.7696 12.312C56.8576 9.656 58.2976 7.608 60.0896 6.168C61.9136 4.696 63.9296 3.96 66.1376 3.96C67.4496 3.96 68.6016 4.088 69.5936 4.344C70.5856 4.568 71.4656 4.872 72.2336 5.256C72.6176 5.48 72.8096 5.816 72.8096 6.264L72.9536 13.56C72.9536 14.104 72.7616 14.376 72.3776 14.376C72.0256 14.376 71.8016 14.168 71.7056 13.752L71.2256 11.976C70.5536 9.48 69.7696 7.752 68.8736 6.792C68.0096 5.832 66.9696 5.352 65.7536 5.352C63.5136 5.352 61.6416 6.744 60.1376 9.528C58.6656 12.28 57.9296 16.28 57.9296 21.528C57.9296 25.112 58.2976 28.136 59.0336 30.6C59.8016 33.064 60.7776 34.92 61.9616 36.168C63.1776 37.416 64.4576 38.04 65.8016 38.04C67.2416 38.04 68.3936 37.592 69.2576 36.696C70.1536 35.8 70.9056 34.072 71.5136 31.512L72.0896 29.16C72.1856 28.68 72.4416 28.472 72.8576 28.536C73.2096 28.6 73.3856 28.872 73.3856 29.352L73.1936 37.128C73.1936 37.576 72.9856 37.912 72.5696 38.136C71.8016 38.52 70.8896 38.824 69.8336 39.048C68.8096 39.304 67.5296 39.432 65.9936 39.432ZM87.7256 39.432C86.1896 39.432 84.7496 38.984 83.4056 38.088C82.0616 37.16 80.8776 35.896 79.8536 34.296C78.8616 32.696 78.0776 30.824 77.5016 28.68C76.9576 26.504 76.6856 24.168 76.6856 21.672C76.6856 19.176 76.9576 16.856 77.5016 14.712C78.0776 12.568 78.8616 10.696 79.8536 9.096C80.8776 7.464 82.0616 6.2 83.4056 5.304C84.7496 4.408 86.1896 3.96 87.7256 3.96C89.2616 3.96 90.6856 4.408 91.9976 5.304C93.3416 6.2 94.5256 7.464 95.5496 9.096C96.5736 10.696 97.3576 12.568 97.9016 14.712C98.4776 16.856 98.7656 19.176 98.7656 21.672C98.7656 24.168 98.4776 26.504 97.9016 28.68C97.3576 30.824 96.5736 32.696 95.5496 34.296C94.5256 35.896 93.3416 37.16 91.9976 38.088C90.6856 38.984 89.2616 39.432 87.7256 39.432ZM87.7256 38.136C89.9976 38.136 91.7736 36.776 93.0536 34.056C94.3336 31.336 94.9736 27.208 94.9736 21.672C94.9736 16.136 94.3336 12.024 93.0536 9.336C91.7736 6.616 89.9976 5.256 87.7256 5.256C85.4856 5.256 83.7096 6.616 82.3976 9.336C81.1176 12.024 80.4776 16.136 80.4776 21.672C80.4776 27.208 81.1176 31.336 82.3976 34.056C83.7096 36.776 85.4856 38.136 87.7256 38.136ZM107.984 24.984C106.896 24.984 105.984 24.648 105.248 23.976C104.512 23.272 104.144 22.344 104.144 21.192C104.144 20.104 104.512 19.208 105.248 18.504C105.984 17.8 106.896 17.448 107.984 17.448C108.944 17.448 109.808 17.8 110.576 18.504C111.344 19.208 111.728 20.104 111.728 21.192C111.728 22.344 111.344 23.272 110.576 23.976C109.808 24.648 108.944 24.984 107.984 24.984ZM116.757 39C116.277 39 116.037 38.824 116.037 38.472C116.037 38.184 116.245 37.992 116.661 37.896L117.765 37.704C118.437 37.576 118.869 37.4 119.061 37.176C119.285 36.952 119.397 36.504 119.397 35.832V7.608C119.397 6.936 119.285 6.488 119.061 6.264C118.869 6.04 118.437 5.864 117.765 5.736L116.661 5.544C116.245 5.448 116.037 5.256 116.037 4.968C116.037 4.616 116.277 4.44 116.757 4.44H125.445C125.925 4.44 126.165 4.616 126.165 4.968C126.165 5.256 125.957 5.448 125.541 5.544L124.437 5.736C123.765 5.864 123.317 6.04 123.093 6.264C122.901 6.488 122.805 6.936 122.805 7.608V35.832C122.805 36.504 122.901 36.952 123.093 37.176C123.317 37.4 123.765 37.576 124.437 37.704L125.541 37.896C125.957 37.992 126.165 38.184 126.165 38.472C126.165 38.824 125.925 39 125.445 39H116.757ZM147.91 49.32C146.95 49.32 145.926 49.112 144.838 48.696C143.782 48.312 142.838 47.624 142.006 46.632C141.174 45.64 140.598 44.232 140.278 42.408C140.118 41.384 139.862 40.648 139.51 40.2C139.158 39.752 138.566 39.368 137.734 39.048C136.07 38.504 134.566 37.416 133.222 35.784C131.91 34.12 130.87 32.072 130.102 29.64C129.366 27.208 128.998 24.552 128.998 21.672C128.998 19.176 129.27 16.856 129.814 14.712C130.39 12.568 131.174 10.696 132.166 9.096C133.19 7.464 134.374 6.2 135.718 5.304C137.062 4.408 138.502 3.96 140.038 3.96C141.574 3.96 142.998 4.408 144.31 5.304C145.654 6.2 146.838 7.464 147.862 9.096C148.886 10.696 149.67 12.568 150.214 14.712C150.79 16.856 151.078 19.176 151.078 21.672C151.078 24.616 150.678 27.336 149.878 29.832C149.11 32.296 148.038 34.344 146.662 35.976C145.318 37.608 143.782 38.664 142.054 39.144C141.862 39.176 141.766 39.256 141.766 39.384C141.766 39.544 141.846 39.688 142.006 39.816C142.422 40.104 142.774 40.456 143.062 40.872C143.35 41.32 143.59 41.88 143.782 42.552C144.358 44.408 145.094 45.752 145.99 46.584C146.918 47.416 147.926 47.832 149.014 47.832C149.974 47.832 150.95 47.528 151.942 46.92C152.198 46.76 152.438 46.712 152.662 46.776C152.886 46.84 152.998 47 152.998 47.256C152.998 47.48 152.87 47.704 152.614 47.928C152.102 48.312 151.462 48.632 150.694 48.888C149.958 49.176 149.03 49.32 147.91 49.32ZM140.038 38.136C142.31 38.136 144.086 36.776 145.366 34.056C146.646 31.336 147.286 27.208 147.286 21.672C147.286 16.136 146.646 12.024 145.366 9.336C144.086 6.616 142.31 5.256 140.038 5.256C137.798 5.256 136.022 6.616 134.71 9.336C133.43 12.024 132.79 16.136 132.79 21.672C132.79 27.208 133.43 31.336 134.71 34.056C136.022 36.776 137.798 38.136 140.038 38.136Z" fill="black"/>
</svg>
